<?xml version="1.0" encoding="utf-8"?>
<!-- Generator: Adobe Illustrator 19.0.0, SVG Export Plug-In . SVG Version: 6.00 Build 0)  -->
<svg version="1.1" id="Layer_1" xmlns="http://www.w3.org/2000/svg" xmlns:xlink="http://www.w3.org/1999/xlink" x="0px" y="0px"
	 viewBox="0 0 149.5 75.7" style="enable-background:new 0 0 149.5 75.7;" xml:space="preserve">
<style type="text/css">
	.st0{fill:#FFFFFF;}
</style>
<path id="XMLID_18_" class="st0" d="M149.5,42.3c0,0.5,0,1,0,1.4c-0.5,0.7-1,1.6-1.7,2.2c-2.2,2-4.5,3.8-6.7,5.7
	c-6.1,5.2-12.3,10.3-18.4,15.5c-3.5,2.9-7,5.8-10.5,8.6c-0.3,0-0.6,0-1,0c-0.2-0.9-0.7-1.8-0.7-2.7c-0.1-4.5,0-8.9,0-13.4
	c0-1.8,0.2-1.7-1.7-1.7c-35.2,0-70.3,0-105.5,0.1c-1.7,0-2.8-0.4-3.3-2.1C0,37.3,0,18.7,0,0c9.1,0,18.1,0,27.2,0
	c1.3,0.6,1.7,1.6,1.7,3c0,8.2,0,16.5,0,24.7c0,0.5,0,0.9,0,1.4c27,0,53.7,0,80.7,0c0-0.5,0-1,0-1.5c0-4.1,0-8.1,0-12.2
	c0-0.8,0.1-1.6,0.2-2.4c0.3-1.2,1-1.5,2.2-1c0.4,0.2,0.8,0.4,1.1,0.7c1.8,1.4,3.6,2.8,5.4,4.3c8.7,6.8,17.5,13.7,26.1,20.6
	C146.4,39,147.9,40.7,149.5,42.3z"/>
</svg>
