<?xml version="1.0" encoding="utf-8"?>
<!-- Generator: Adobe Illustrator 19.0.0, SVG Export Plug-In . SVG Version: 6.00 Build 0)  -->
<svg version="1.1" id="Layer_1" xmlns="http://www.w3.org/2000/svg" xmlns:xlink="http://www.w3.org/1999/xlink" x="0px" y="0px"
	 viewBox="0 0 1255.5 222.7" style="enable-background:new 0 0 1255.5 222.7;" xml:space="preserve">
<style type="text/css">
	.st0{fill:#FFFFFF;}
</style>
<path id="XMLID_419_" class="st0" d="M0,222.6c0-0.7,0-1.4,0-2.1c0.1-5.1,0.2-10.1,0.3-15.2c0.3-6.2,0.2-12.4,0.5-18.7
	c0.6-11,0.4-22,0.6-32.9c0-0.4-0.2-0.8,0.2-1.2c4.1-4.4,8.2-8.8,12.2-13.3c3.6-4,7.2-8,10.9-12c0.8-0.9,1.7-1.3,3.4-1.3
	c17,0.1,34.1,0.1,51.1,0c1.7,0,2.2,0.2,2.2,1.5c-0.1,20.2,0,40.4-0.1,60.6c0,1.2,0.5,1.4,2.1,1.4c10.2,0,20.5-0.1,30.7,0
	c1.6,0,2.1-0.2,2.1-1.5c-0.1-34.1,0-68.3-0.1-102.4c0-1,0.4-1.3,1.9-1.3c16.1,0,32.3,0,48.4,0c1.6,0,2,0.2,2,1.4
	c-0.1,15.8,0,31.7-0.1,47.5c0,0.9,0.3,1.2,1.6,1.2c4.6-0.1,9.1-0.1,13.7,0c1.6,0,2-0.3,2-1.4c-0.1-32.5,0-64.9-0.1-97.4
	c0-1,0.3-1.3,1.8-1.3c11.5,0.1,23.1,0,34.6,0.1c1.2,0,1.6-0.2,1.6-1.1c-0.1-4.1,0.1-8.3-0.1-12.4c0-1.3,0.5-1.5,2.2-1.5
	c18.7,0,37.4,0.1,56,0c3.3,0,6.4,0.4,9.4,1.4c0.5,0.1,0.9,0.3,1.4,0.4c9.2,2.7,18.5,5.3,27.7,8c0.8,0.2,1.2,0.6,1.2,1.3
	c-0.1,2.6,0,5.2-0.1,7.8c0,0.9,0.3,1.2,1.6,1.2c9.8,0,19.7,0,29.5,0c1.4,0,2,0.2,1.9,1.3c-0.1,3.2,0,6.5,0,9.7c0,10.2,0,20.4,0,30.6
	c0,0.8,0.2,1.3,1.3,1.7c0.6,0.2,1.1,0.6,1.7,0.9c8.2,3.9,16.4,7.8,24.6,11.7c1.1,0.5,1.8,1.1,1.7,2.3c-0.1,5.3,0,10.5-0.1,15.8
	c0,1,0.3,1.2,1.7,1.2c12.7,0,25.3,0,38-0.1c1.8,0,2.1,0.3,2.1,1.5c0,23,0,46-0.1,69c0,1.1,0.4,1.3,1.8,1.3c9.1-0.1,18.2-0.1,27.3,0
	c1.6,0,2-0.3,2-1.4c0-34.7,0-69.4-0.1-104c0-1.1,0.4-1.3,1.9-1.3c16.1,0,32.3,0,48.4,0.1c1.5,0,1.8-0.3,1.8-1.3
	c-0.1-10.3,0-20.6-0.1-30.9c0-0.9,0.4-1.2,1.7-1.2c10.5,0,21,0,31.6,0c1.5,0,1.8,0.3,1.8,1.3c-0.1,9.2,0,18.4-0.1,27.6
	c0,0.9,0.4,1.1,1.7,1.1c9.2,0,18.5,0,27.7,0c1.5,0,1.8-0.2,1.8-1.3c-0.1-20.9,0-41.7-0.1-62.6c0-1,0.4-1.2,1.8-1.2
	c11.5,0,23,0,34.4,0.1c1.6,0,1.8-0.3,1.8-1.3c-0.1-2.8,0-5.5,0-8.3c0-0.5-0.2-1,0.5-1.3c17.9,0,35.8,0,53.7,0c3.1,1.5,6.2,3,9.3,4.5
	c4.1,2,8.2,4.1,12.4,6c2.1,1,3.9,2.1,6.9,2.1c21.6-0.1,43.1,0,64.7-0.1c1.8,0,2,0.4,2,1.5c0,28.5,0,57-0.1,85.4
	c0,1.2,0.4,1.5,2.1,1.5c16.7,0,33.4,0,50.1,0c1.6,0,1.8-0.3,1.8-1.3c0-15,0-30.1-0.1-45.1c0-0.9,0.3-1.2,1.7-1.2
	c6.4,0.1,12.8,0.1,19.2,0c1.4,0,1.8,0.2,1.8,1.2c-0.1,7,0,14-0.1,21c0,1.1,0.5,1.3,1.9,1.3c16.7,0,33.4,0,50.1,0
	c1.4,0,1.8-0.2,1.8-1.2c-0.1-10.3,0-20.7-0.1-31c0-1,0.4-1.2,1.7-1.1c6,0,11.9,0,17.9,0c1.2,0,1.5-0.2,1.5-1c-0.1-4.1,0-8.1,0-12.2
	c0-0.6,0-1,1.2-1c5,0,10,0,15,0c1,0,1.2,0.2,1.2,0.9c0,1.8,0.1,3.6-0.1,5.4c-0.1,1.1,0.5,1.3,1.9,1.3c5.9-0.1,11.7,0,17.6,0
	c1.3,0,1.7,0.3,1.6,1.2c-0.1,2.5,0.1,5-0.1,7.5c-0.1,1.2,0.5,1.4,2,1.4c7.4-0.1,14.7,0,22.1-0.1c1.5,0,1.9,0.2,1.9,1.3
	c-0.1,8.2,0,16.4-0.1,24.5c0,0.6,0.2,1,0.9,1.5c2.6,1.9,5.5,3.6,8.2,5.5c3.8,2.7,8,5.1,11.9,7.8c1,0.6,1.6,1.4,1.6,2.5
	c-0.1,8.8,0,17.7-0.1,26.5c0,1.1,0.4,1.3,1.9,1.3c3-0.1,6,0,8.9,0c1.1,0,1.3,0.2,1.3,0.9c-0.1,2.7,0,5.5-0.1,8.2
	c0,0.7,0.3,0.9,1.3,0.9c3,0,6.1,0.1,9.1,0c1.7-0.1,2,0.3,2,1.4c-0.1,13.6,0,27.3-0.1,40.9c0,0.9,0.3,1.1,1.6,1.1
	c5.6-0.1,11.3-0.1,16.9,0c1.7,0,2.2-0.3,2.2-1.5c-0.1-16.3,0-32.6-0.1-48.9c0-1.1,0.4-1.3,1.9-1.3c3.4,0.1,6.8,0,10.1,0.1
	c1.6,0,2-0.2,2-1.4c-0.1-21.6,0-43.2,0-64.8c0-11.1,0-22.3,0-33.4c0-1.1,0.5-1.4,2-1.3c4.1,0.1,8.2,0,12.3,0c1,0,1.9-0.1,2.8-0.6
	c2.7-1.4,5.5-2.6,8.3-4c3.8-1.8,7.7-3.6,11.5-5.5c0.7-0.4,1.4-0.7,2.3-0.7c12.6,0,25.2,0,37.8,0c1,0,1.2,0.2,1.2,0.9
	c0,2.7,0,5.5,0,8.2c0,0.7,0.2,1,1.3,1c11.4,0,22.7,0,34.1,0c1.1,0,1.4-0.2,1.4-1c-0.1-4,0-8.1-0.1-12.1c0-0.9,0.2-1.2,1.6-1.2
	c7.6-0.2,15.3-0.4,22.9-0.7c0.9,0,1.8,0.1,2.6,0.4c3.9,1.4,7.7,2.8,11.7,4.1c1,0.3,1.1,0.7,1.1,1.3c0,3.8,0,7.6,0,11.4
	c0,0.9,0.3,1.1,1.6,1.1c8.2,0,16.3,0,24.5-0.1c1.6,0,1.8,0.3,1.8,1.3c-0.1,9.2,0,18.4-0.1,27.6c0,1,0.4,1.2,1.7,1.2
	c3.4-0.1,6.9,0,10.3-0.1c1.6,0,2,0.3,2,1.4c0,56.3,0,112.7,0,169c0,1.2-0.4,1.5-2.1,1.5c-55-0.1-110-0.1-164.9-0.1
	c-123.2,0-246.3-0.1-369.5-0.1c-239,0-478.1,0-717.1-0.1C1.2,222.5,0.6,222.5,0,222.6z M606.7,73.7c2.6,0.3,5.3,0,7.9,0.1
	c0.7,0,0.8-0.2,0.8-0.7c0-3.2,0-6.5,0-9.7c0-0.5-0.3-0.7-1-0.7c-2.6,0-5.2,0.1-7.7,0.1c-0.6-0.1-0.6,0.2-0.6,0.5c0,3.3,0,6.6,0,9.9
	C606.1,73.6,606.1,73.9,606.7,73.7z M949.1,61.3c0,1.5,0,3.1,0,4.6c0,0.6,0.1,0.9,1.2,0.9c2.4,0,4.7,0,7.1,0c0.8,0,1.1-0.2,1.1-0.7
	c0-3.2,0-6.4,0-9.6c0-0.6-0.3-0.8-1.1-0.7c-2.4,0-4.7,0-7.1,0c-1,0-1.2,0.3-1.2,0.9C949.1,58.2,949.1,59.7,949.1,61.3z M244.8,94.8
	c0,1.6,0,3.2,0,4.9c0,0.5,0.1,0.7,0.9,0.7c2.4,0,4.8,0,7.3,0c0.8,0,1.2-0.2,1.2-0.8c0-3.1,0-6.2,0-9.4c0-0.6-0.4-0.8-1.2-0.8
	c-2.4,0-4.7,0-7.1,0c-1,0-1.1,0.3-1.1,0.8C244.8,91.7,244.8,93.3,244.8,94.8z M1211.7,39.7c0-1.5-0.1-3.1,0-4.6
	c0-0.8-0.3-0.9-1.4-0.9c-2.2,0-4.5,0-6.7,0c-1,0-1.3,0.2-1.3,0.9c0.1,3.1,0,6.2,0,9.2c0,0.6,0.2,0.9,1.2,0.9c2.4,0,4.7,0,7.1,0
	c0.9,0,1.2-0.2,1.1-0.8C1211.7,42.9,1211.7,41.3,1211.7,39.7z M212.6,123.7c0-1.6,0-3.2,0-4.7c0-0.7-0.3-0.9-1.2-0.9
	c-2.3,0-4.6,0-6.9,0c-0.9,0-1.2,0.2-1.2,0.9c0,3.1,0,6.2,0,9.3c0,0.6,0.1,0.9,1.1,0.8c2.4,0,4.8,0,7.2,0c0.8,0,1.1-0.2,1.1-0.7
	C212.6,126.8,212.6,125.3,212.6,123.7z M244.8,123.6c0-1.6,0-3.2,0-4.7c0-0.6-0.2-0.8-1.1-0.8c-2.2,0-4.5,0-6.8,0
	c-1.1,0-1.5,0.3-1.5,1c0.1,3,0.1,6,0,9c0,0.8,0.4,1,1.5,1c2.2,0,4.5,0,6.8,0c0.9,0,1.2-0.2,1.1-0.8
	C244.8,126.8,244.8,125.2,244.8,123.6z M1202.3,167.8c0,1.6,0,3.2,0,4.9c0,0.5,0.1,0.8,1,0.8c2.5,0,4.9,0,7.4,0c0.7,0,1-0.2,1-0.7
	c0-3.2,0-6.5,0-9.7c0-0.5-0.3-0.7-1-0.7c-2.4,0-4.8,0-7.3,0c-0.9,0-1.2,0.2-1.1,0.8C1202.4,164.7,1202.3,166.3,1202.3,167.8z
	 M314,170.2c0-1.6,0-3.2,0-4.9c0-0.6-0.2-0.8-1.1-0.8c-2.4,0-4.7,0-7.1,0c-0.9,0-1.2,0.2-1.2,0.8c0,3.2,0,6.3,0,9.5
	c0,0.6,0.2,0.8,1.1,0.8c2.4,0,4.7,0,7.1,0c0.9,0,1.2-0.2,1.1-0.8C314,173.3,314,171.7,314,170.2z M887,111.5c0,1.6,0,3.2,0,4.7
	c0,0.6,0.1,0.9,1.1,0.9c2.4,0,4.8,0,7.2,0c0.9,0,1.1-0.3,1.1-0.8c0-3.1-0.1-6.2,0-9.3c0-0.7-0.4-0.9-1.3-0.9c-2.3,0-4.6,0-6.9,0
	c-0.9,0-1.3,0.2-1.2,0.9C887,108.4,887,110,887,111.5z M896.4,128.2c0-1.6,0-3.2,0-4.7c0-0.6-0.3-0.8-1.1-0.8c-2.4,0-4.8,0-7.2,0
	c-0.8,0-1,0.2-1,0.8c0,3.2,0,6.3,0,9.5c0,0.5,0.2,0.8,1,0.8c2.4,0,4.8,0,7.2,0c0.9,0,1.1-0.2,1.1-0.8
	C896.3,131.3,896.4,129.7,896.4,128.2z M723.6,26.3c0,1.6,0,3.2,0,4.7c0,0.5,0.1,0.8,1,0.8c2.5,0,5,0,7.4,0c0.7,0,1-0.2,1-0.7
	c0-3.2,0-6.4,0-9.6c0-0.6-0.3-0.7-1.1-0.7c-2.4,0-4.8,0-7.3,0c-0.8,0-1,0.2-1,0.8C723.6,23.2,723.6,24.7,723.6,26.3z M64.2,163.6
	c0-1.6,0-3.2,0-4.8c0-0.5-0.1-0.8-1-0.8c-2.4,0-4.7,0-7.1,0c-1,0-1.3,0.2-1.3,1c0.1,3,0.1,6.1,0,9.1c0,0.8,0.4,0.9,1.4,0.9
	c2.3,0,4.6,0,6.9,0c0.9,0,1.2-0.1,1.1-0.8C64.1,166.7,64.2,165.2,64.2,163.6z M244.8,64c0-1.6,0-3.2,0-4.9c0-0.5-0.2-0.7-0.9-0.7
	c-2.4,0-4.8,0-7.2,0c-0.8,0-1.2,0.2-1.2,0.9c0,3.1,0,6.2,0,9.2c0,0.7,0.3,0.9,1.3,0.9c2.4,0,4.7,0,7.1,0c0.8,0,1-0.2,1-0.7
	C244.8,67.1,244.8,65.6,244.8,64z M244.8,47.4c0-1.6,0-3.2,0-4.9c0-0.5-0.1-0.7-0.9-0.7c-2.4,0-4.8,0-7.2,0c-1,0-1.2,0.3-1.2,1
	c0,3,0,6.1,0,9.1c0,0.8,0.4,0.9,1.4,0.9c2.3,0,4.6,0,6.9,0c0.8,0,1.1-0.1,1-0.7C244.8,50.6,244.8,49,244.8,47.4z M1209.4,137
	c0,1.6,0,3.2,0,4.7c0,0.5,0.1,0.8,1,0.8c2.4,0,4.7,0,7.1,0c1.1,0,1.3-0.3,1.3-1c0-3-0.1-6,0-9c0-0.8-0.4-1-1.5-1c-2.2,0-4.5,0-6.7,0
	c-1.1,0-1.2,0.3-1.1,0.9C1209.4,133.9,1209.4,135.4,1209.4,137z M64.2,139.1c0-1.6,0-3.2,0-4.7c0-0.5-0.2-0.8-1-0.7
	c-2.4,0-4.7,0-7.1,0c-1,0-1.3,0.2-1.3,1c0.1,3,0.1,6,0,9c0,0.8,0.3,1.1,1.4,1c2.3,0,4.6,0,6.9,0c0.9,0,1.1-0.2,1.1-0.8
	C64.1,142.3,64.2,140.7,64.2,139.1z M203.3,64c0,1.6,0,3.2,0,4.7c0,0.5,0.1,0.7,0.9,0.7c2.5,0,5.1,0,7.6,0c0.6,0,0.9-0.1,0.9-0.6
	c0-3.2,0-6.5,0-9.7c0-0.5-0.3-0.7-1-0.7c-2.4,0-4.8,0-7.3,0c-1,0-1.2,0.3-1.1,0.9C203.3,60.9,203.3,62.5,203.3,64z M719.1,57.4
	c0-1.6,0-3.2,0-4.7c0-0.5-0.1-0.8-1-0.8c-2.5,0-4.9,0-7.4,0c-0.7,0-1,0.1-1,0.7c0,3.2,0,6.4,0,9.6c0,0.6,0.3,0.7,1,0.7
	c2.4,0,4.8,0,7.3,0c1,0,1.1-0.3,1.1-0.9C719,60.4,719.1,58.9,719.1,57.4z M927.4,159c0-1.5,0-3,0-4.5c0-0.6-0.1-0.9-1.2-0.9
	c-2.4,0.1-4.7,0-7.1,0c-0.9,0-1.1,0.2-1.1,0.8c0,3.1,0,6.2,0,9.3c0,0.6,0.2,0.9,1.1,0.8c2.4,0,4.8,0,7.2,0c0.8,0,1.1-0.2,1-0.8
	C927.4,162.2,927.4,160.6,927.4,159z M212.6,47.4c0-1.5,0-3.1,0-4.6c0-0.6-0.1-0.9-1.2-0.9c-2.4,0.1-4.7,0-7.1,0
	c-0.8,0-1.1,0.2-1.1,0.8c0.1,3.1,0,6.2,0,9.4c0,0.6,0.1,0.9,1.1,0.8c2.4,0,4.8,0,7.3,0c0.8,0,1.1-0.2,1-0.7
	C212.6,50.5,212.6,49,212.6,47.4z M1118.5,32.6c0-1.6,0-3.2,0-4.7c0-0.6-0.2-0.9-1.1-0.8c-2.4,0-4.8,0-7.3,0c-0.7,0-1,0.1-1,0.6
	c0,3.2,0,6.5,0,9.7c0,0.5,0.3,0.7,1,0.7c2.4,0,4.8,0,7.3,0c0.8,0,1.2-0.2,1.1-0.8C1118.5,35.7,1118.5,34.1,1118.5,32.6z M608.7,23.1
	c0-1.6,0-3.2,0-4.9c0-0.5-0.1-0.7-0.9-0.7c-2.5,0-5.1,0-7.6,0c-0.7,0-0.9,0.2-0.9,0.6c0,3.2,0,6.5,0,9.7c0,0.5,0.2,0.7,1,0.7
	c2.4,0,4.8,0,7.3,0c1,0,1.2-0.3,1.1-0.9C608.7,26.1,608.7,24.6,608.7,23.1z M1109.2,49c0,1.6,0,3.2,0,4.7c0,0.6,0.2,0.8,1.1,0.8
	c2.3,0,4.6,0,6.9,0c0.9,0,1.4-0.2,1.4-0.9c-0.1-3.1-0.1-6.1,0-9.2c0-0.7-0.4-0.9-1.3-0.9c-2.4,0-4.7,0-7.1,0c-0.8,0-1.1,0.2-1.1,0.7
	C1109.2,45.9,1109.2,47.5,1109.2,49z M1209.4,120.4c0,1.6,0,3.2,0,4.8c0,0.5,0.2,0.7,0.9,0.7c2.4,0,4.8,0,7.2,0
	c0.8,0,1.2-0.2,1.2-0.8c0-3.1,0-6.1,0-9.2c0-0.7-0.3-0.9-1.3-0.9c-2.4,0-4.7,0-7.1,0c-0.8,0-1,0.2-1,0.7
	C1209.4,117.2,1209.4,118.8,1209.4,120.4z M314,141.3c0-1.5,0-3.1,0-4.6c0-0.6-0.2-0.9-1.2-0.9c-2.3,0.1-4.6,0.1-6.9,0
	c-1.1,0-1.3,0.3-1.3,1c0,3,0,6.1,0,9.1c0,0.7,0.2,1,1.3,0.9c2.2-0.1,4.5-0.1,6.7,0c1,0,1.4-0.1,1.3-0.9
	C313.9,144.4,314,142.8,314,141.3z M615.5,92.8c0-1.6,0-3.2,0-4.7c0-0.6-0.1-0.9-1.1-0.9c-2.4,0-4.7,0-7.1,0c-1,0-1.2,0.2-1.2,0.9
	c0,3,0.1,6.1,0,9.1c0,0.7,0.3,1,1.3,1c2.3,0,4.6,0,6.9,0c1,0,1.2-0.3,1.2-0.9C615.4,95.8,615.5,94.3,615.5,92.8z M989.5,118.8
	c0-1.6,0-3.2,0-4.7c0-0.6-0.1-0.9-1.1-0.8c-2.4,0-4.8,0-7.2,0c-0.8,0-1,0.2-1,0.7c0,3.2,0,6.3,0,9.5c0,0.6,0.3,0.8,1.1,0.8
	c2.4,0,4.7,0,7.1,0c0.9,0,1.2-0.2,1.1-0.8C989.4,121.9,989.5,120.4,989.5,118.8z M314,112.6c0-1.6,0-3.2,0-4.7
	c0-0.6-0.2-0.8-1.1-0.8c-2.4,0-4.7,0-7.1,0c-0.9,0-1.2,0.1-1.2,0.8c0,3.2,0,6.3,0,9.5c0,0.6,0.3,0.7,1.1,0.7c2.4,0,4.8,0,7.2,0
	c0.8,0,1.1-0.1,1-0.7C314,115.8,314,114.2,314,112.6z M880.2,111.6c0-1.6,0-3.2,0-4.8c0-0.6-0.2-0.7-1.1-0.7c-2.4,0-4.7,0-7.1,0
	c-0.9,0-1.1,0.3-1.1,0.8c0,3.2,0,6.3,0,9.5c0,0.6,0.3,0.8,1.2,0.8c2.3,0,4.6,0,6.9,0c1,0,1.2-0.2,1.2-0.9
	C880.2,114.7,880.2,113.1,880.2,111.6z M663.7,68.4c0-1.6,0-3.2,0-4.7c0-0.6-0.2-0.9-1.1-0.8c-2.2,0-4.5,0-6.7,0
	c-0.8,0-1.2,0.1-1.2,0.8c0,3.2,0,6.3,0,9.5c0,0.7,0.4,0.9,1.3,0.8c2.1,0,4.3-0.1,6.4,0c1.2,0,1.4-0.3,1.4-1
	C663.6,71.4,663.7,69.9,663.7,68.4z M251.9,123.6c0,1.6,0,3.2,0,4.7c0,0.6,0.2,0.8,1.1,0.8c2.2,0,4.5,0,6.7,0c0.8,0,1.2-0.1,1.2-0.8
	c0-3.2,0-6.3,0-9.5c0-0.7-0.4-0.8-1.3-0.8c-2.1,0-4.3,0-6.4,0c-1,0-1.4,0.2-1.3,0.9C251.9,120.5,251.9,122.1,251.9,123.6z
	 M912.4,128.2c0-1.6,0-3.2,0-4.7c0-0.7-0.3-0.9-1.2-0.9c-2.3,0-4.6,0-6.9,0c-0.8,0-1.1,0.1-1.1,0.7c0,3.2,0,6.4,0,9.6
	c0,0.6,0.3,0.7,1.1,0.7c2.3,0,4.6-0.1,6.9,0c1.1,0,1.3-0.3,1.3-1C912.3,131.2,912.4,129.7,912.4,128.2z M926.2,61.2
	c0-1.6,0-3.2,0-4.7c0-0.6-0.3-0.8-1.2-0.8c-2.3,0-4.6,0-6.9,0c-0.8,0-1.2,0.1-1.2,0.8c0,3.2,0,6.4,0,9.6c0,0.6,0.2,0.7,1.1,0.7
	c2.3,0,4.6-0.1,6.9,0c1.1,0,1.3-0.3,1.3-1C926.2,64.3,926.2,62.8,926.2,61.2z M1206,78.3c0,1.6,0,3.2,0,4.8c0,0.6,0.2,0.7,1,0.7
	c2.3,0,4.6,0,6.9,0c0.7,0,1.1-0.1,1.1-0.7c0-3.2,0-6.4,0-9.6c0-0.6-0.3-0.8-1.1-0.7c-2.3,0-4.6,0-6.9,0c-1,0-1.1,0.3-1.1,0.8
	C1206.1,75.3,1206,76.8,1206,78.3z M251.9,63.9c0,1.6,0,3.1,0,4.7c0,0.5,0,0.9,1,0.8c2.3-0.1,4.6-0.1,6.9,0c1,0,1.1-0.3,1.1-0.8
	c0-3.1,0-6.2,0-9.3c0-0.6-0.1-0.9-1.1-0.8c-2.3,0-4.6,0-6.9,0c-0.8,0-1.1,0.1-1,0.7C251.9,60.8,251.9,62.3,251.9,63.9z M251.9,47.3
	c0,1.6,0,3.2,0,4.8c0,0.5,0.1,0.7,0.9,0.7c2.4,0,4.7,0,7.1,0c0.8,0,1-0.2,1-0.7c0-3.1,0-6.3,0-9.4c0-0.6-0.2-0.8-1.1-0.8
	c-2.2,0-4.5,0-6.7,0c-1,0-1.2,0.2-1.2,0.9C251.9,44.3,251.9,45.8,251.9,47.3z M134.4,103.7c0,1.6,0,3.2,0,4.7c0,0.6,0.2,0.8,1.1,0.8
	c2.3,0,4.6,0,6.9,0c0.8,0,1-0.2,1-0.7c0-3.2,0-6.3,0-9.5c0-0.7-0.4-0.9-1.3-0.8c-2.2,0-4.4,0-6.6,0c-1,0-1.2,0.2-1.2,0.9
	C134.5,100.7,134.4,102.2,134.4,103.7z M415.3,128.1c0-1.6,0-3.2,0-4.8c0-0.5-0.1-0.8-1-0.7c-2.4,0-4.8,0-7.2,0c-0.8,0-1,0.2-1,0.7
	c0,3.2,0,6.3,0,9.5c0,0.6,0.2,0.8,1.1,0.8c2.4,0,4.7,0,7.1,0c0.9,0,1.1-0.2,1.1-0.8C415.3,131.2,415.3,129.6,415.3,128.1z
	 M1161.2,136.9c0,1.6,0,3.2,0,4.7c0,0.6,0.1,0.9,1.1,0.8c2.3,0,4.6,0,6.9,0c0.8,0,1.1-0.2,1.1-0.7c0-3.2,0-6.3,0-9.5
	c0-0.6-0.3-0.8-1.2-0.8c-2.2,0-4.5,0-6.7,0c-0.9,0-1.1,0.2-1.1,0.8C1161.2,133.8,1161.2,135.4,1161.2,136.9z M48,139.2
	c0-1.6,0-3.2,0-4.7c0-0.6-0.1-0.8-1.1-0.8c-2.4,0.1-4.7,0-7.1,0c-1,0-1.1,0.2-1.1,0.8c0,3.1,0,6.2,0,9.4c0,0.7,0.3,0.8,1.2,0.8
	c2.2,0,4.5-0.1,6.7,0c1.1,0,1.3-0.3,1.3-1C47.9,142.2,48,140.7,48,139.2z M1161.2,120.3c0,1.6,0,3.2,0,4.7c0,0.6,0.1,0.8,1.1,0.8
	c2.2,0,4.5,0,6.7,0c1,0,1.2-0.2,1.2-0.9c0-3.1-0.1-6.2,0-9.2c0-0.8-0.4-0.9-1.4-0.9c-2.1,0-4.3,0.1-6.4,0c-1.1,0-1.3,0.3-1.3,0.9
	C1161.2,117.3,1161.2,118.8,1161.2,120.3z M406.1,151.2c0,1.6,0,3.2,0,4.7c0,0.5,0,0.8,1,0.8c2.5,0,4.9,0,7.4,0
	c0.8,0,0.9-0.3,0.9-0.7c0-3.2,0-6.4,0-9.6c0-0.6-0.2-0.7-1-0.7c-2.4,0-4.7,0-7.1,0c-1,0-1.2,0.3-1.2,0.9
	C406.1,148.2,406.1,149.7,406.1,151.2z M48,163.6c0-1.6,0-3.2,0-4.7c0-0.6-0.1-0.8-1.1-0.8c-2.4,0.1-4.7,0.1-7.1,0
	c-1,0-1.1,0.3-1.1,0.8c0,3.1,0,6.2,0,9.4c0,0.6,0.1,0.8,1.1,0.8c2.4,0,4.7,0,7.1,0c1,0,1.1-0.3,1.1-0.8C48,166.7,48,165.1,48,163.6z
	 M415.3,171.2c0-1.6,0-3.2,0-4.7c0-0.5,0-0.8-1-0.8c-2.5,0-5,0-7.4,0c-0.7,0-0.9,0.1-0.9,0.6c0,3.2,0,6.5,0,9.7c0,0.5,0.3,0.7,1,0.7
	c2.4,0,4.8,0,7.3,0c0.8,0,1-0.2,1-0.7C415.3,174.3,415.3,172.7,415.3,171.2z M359.9,187.8c0-1.6,0-3.2,0-4.9c0-0.5-0.1-0.8-1-0.7
	c-2.4,0-4.8,0-7.2,0c-0.9,0-1,0.2-1,0.8c0,3.2,0,6.3,0,9.5c0,0.7,0.4,0.8,1.2,0.7c2.3,0,4.6,0,6.9,0c1,0,1.2-0.3,1.2-0.9
	C359.9,190.8,359.9,189.3,359.9,187.8z M700.6,26.3c0-1.6,0-3.2,0-4.7c0-0.6-0.2-0.8-1-0.7c-2.4,0-4.8,0-7.3,0c-0.7,0-1,0.1-1,0.7
	c0,3.2,0,6.4,0,9.6c0,0.5,0.2,0.8,1,0.7c2.4,0,4.7,0,7.1,0c0.9,0,1.2-0.2,1.1-0.8C700.6,29.5,700.6,27.9,700.6,26.3z M716.8,26.3
	c0-1.6,0-3.2,0-4.7c0-0.5-0.2-0.8-1-0.7c-2.4,0-4.8,0-7.2,0c-0.9,0-1,0.2-1,0.7c0,3.2,0,6.3,0,9.5c0,0.7,0.4,0.8,1.3,0.8
	c2.2,0,4.5-0.1,6.7,0c1.1,0,1.3-0.3,1.3-0.9C716.8,29.4,716.8,27.8,716.8,26.3z M748.9,26.4c0-1.6,0-3.2,0-4.9c0-0.6-0.2-0.7-1-0.7
	c-2.4,0-4.8,0-7.3,0c-0.7,0-0.9,0.2-0.9,0.7c0,3.2,0,6.4,0,9.6c0,0.6,0.2,0.8,1,0.7c2.4,0,4.7,0,7.1,0c0.9,0,1.1-0.2,1.1-0.8
	C748.9,29.5,748.9,28,748.9,26.4z M735.2,92.5c0,1.6,0,3.2,0,4.8c0,0.5,0.1,0.8,1,0.8c2.5,0,4.9,0,7.4,0c0.6,0,0.9-0.1,0.9-0.6
	c0-3.3,0-6.5,0-9.8c0-0.5-0.2-0.6-0.9-0.6c-2.5,0-4.9,0-7.4,0c-0.9,0-1,0.2-1,0.8C735.3,89.5,735.2,91,735.2,92.5z M654.7,92.6
	c0,1.6,0,3.2,0,4.8c0,0.5,0.2,0.8,1,0.8c2.3,0,4.6,0,6.9,0c0.9,0,1.1-0.2,1.1-0.8c0-3.1,0-6.2,0-9.3c0-0.6-0.2-0.8-1.1-0.8
	c-2.2,0-4.5,0-6.7,0c-1,0-1.2,0.3-1.2,0.9C654.7,89.6,654.7,91.1,654.7,92.6z M1093.2,32.5c0,1.6,0,3.2,0,4.7c0,0.6,0.2,0.8,1.1,0.8
	c2.4,0,4.7,0,7.1,0c0.8,0,1.1-0.1,1.1-0.7c0-3.2,0-6.4,0-9.6c0-0.6-0.2-0.8-1-0.7c-2.4,0-4.7,0.1-7.1,0c-1,0-1.2,0.3-1.2,0.9
	C1093.2,29.4,1093.2,31,1093.2,32.5z M1134.5,32.5c0-1.6,0-3.2,0-4.7c0-0.5,0-0.8-0.9-0.8c-2.5,0-4.9,0-7.4,0
	c-0.8,0-0.9,0.3-0.9,0.7c0,3.2,0,6.4,0,9.6c0,0.5,0.2,0.8,1,0.7c2.4,0,4.7-0.1,7.1,0c1,0,1.2-0.3,1.1-0.9
	C1134.5,35.6,1134.5,34.1,1134.5,32.5z M1093.2,49.2c0,1.5,0,3.1,0,4.6c0,0.6,0.3,0.8,1.1,0.8c2.3,0,4.6,0,6.9,0
	c0.8,0,1.2-0.1,1.2-0.7c-0.1-3.2,0-6.4,0-9.6c0-0.5-0.2-0.7-1-0.7c-2.4,0-4.8,0-7.3,0c-0.8,0-1,0.2-1,0.7
	C1093.2,45.9,1093.2,47.6,1093.2,49.2z M1134.5,49.2c0-1.6,0-3.2,0-4.9c0-0.6-0.2-0.8-1-0.7c-2.4,0-4.8,0-7.3,0c-0.7,0-1,0.1-1,0.7
	c0,3.2,0,6.4,0,9.6c0,0.7,0.4,0.8,1.2,0.7c2.3,0,4.6,0,6.9,0c0.9,0,1.2-0.1,1.1-0.8C1134.5,52.3,1134.5,50.7,1134.5,49.2z M338,54.6
	c0-1.6,0-3.2,0-4.9c0-0.6-0.2-0.8-1-0.7c-2.3,0-4.6,0-6.9,0c-1,0-1.1,0.3-1.1,0.8c0,3.1,0,6.2,0,9.4c0,0.6,0.2,0.8,1.1,0.8
	c2.2,0,4.5,0,6.7,0c0.9,0,1.2-0.1,1.1-0.8C337.9,57.7,338,56.2,338,54.6z M528,66c0,1.6,0.1,3.2,0,4.7c0,0.8,0.3,0.9,1.3,0.9
	c2.2-0.1,4.5,0,6.7,0c0.8,0,1.2-0.1,1.2-0.7c-0.1-3.2,0-6.3,0-9.5c0-0.5-0.1-0.8-1-0.8c-2.4,0-4.8,0-7.2,0c-0.9,0-1,0.2-1,0.7
	C528,62.9,528,64.5,528,66z M854.9,128.1c0,1.6,0,3.2,0,4.7c0,0.5,0,0.8,0.9,0.8c2.4,0,4.7,0,7.1,0c0.7,0,0.9-0.2,0.9-0.6
	c0-3.2,0-6.5,0-9.7c0-0.5-0.2-0.7-1-0.7c-2.3,0-4.6,0-6.9,0c-0.8,0-1,0.2-1,0.8C854.9,125,854.9,126.5,854.9,128.1z M622.6,68.3
	c0,1.6,0,3.2,0,4.7c0,0.6,0.2,0.8,1.1,0.8c2.2,0,4.5,0,6.7,0c0.8,0,1.1-0.2,1.1-0.7c0-3.2,0-6.4,0-9.6c0-0.6-0.2-0.8-1-0.7
	c-2.2,0-4.5,0-6.7,0c-0.9,0-1.1,0.2-1.1,0.8C622.6,65.2,622.6,66.8,622.6,68.3z M647.6,68.4c0-1.6,0-3.2,0-4.7
	c0-0.6-0.2-0.8-1.1-0.8c-2.2,0-4.5,0-6.7,0c-0.8,0-1.1,0.2-1.1,0.7c0,3.2,0,6.4,0,9.6c0,0.5,0.2,0.8,1,0.8c2.2,0,4.5,0,6.7,0
	c0.9,0,1.1-0.2,1.1-0.8C647.6,71.5,647.6,69.9,647.6,68.4z M854.9,111.6c0,1.6,0,3.2,0,4.7c0,0.6,0.2,0.8,1.1,0.8c2.2,0,4.5,0,6.7,0
	c0.8,0,1.1-0.2,1-0.7c0-3.2,0-6.4,0-9.6c0-0.6-0.2-0.8-1-0.8c-2.2,0-4.5,0-6.7,0c-0.9,0-1.1,0.2-1.1,0.8
	C854.9,108.4,854.9,110,854.9,111.6z M219.8,123.6c0,1.6,0,3.2,0,4.7c0,0.6,0.2,0.8,1.1,0.8c2.2,0,4.5,0,6.7,0
	c0.8,0,1.1-0.1,1.1-0.7c0-3.2,0-6.4,0-9.6c0-0.7-0.4-0.8-1.2-0.8c-2.2,0-4.4,0-6.6,0c-0.9,0-1.2,0.2-1.1,0.8
	C219.8,120.5,219.8,122,219.8,123.6z M488.6,94.8c0-1.6,0-3.2,0-4.7c0-0.6-0.2-0.7-1-0.7c-2.3,0-4.6,0-6.9,0c-0.7,0-1,0.2-1,0.7
	c0,3.2,0,6.5,0,9.7c0,0.5,0.2,0.7,1,0.7c2.3,0,4.6,0,6.9,0c0.8,0,1.1-0.2,1-0.8C488.6,98,488.6,96.4,488.6,94.8z M488.6,114.8
	c0-1.6,0-3.2,0-4.7c0-0.6-0.3-0.8-1.1-0.8c-2.2,0-4.5,0-6.7,0c-0.8,0-1,0.2-1,0.7c0,3.2,0,6.4,0,9.6c0,0.6,0.2,0.8,1,0.7
	c2.2,0,4.5,0,6.7,0c0.9,0,1.1-0.2,1.1-0.8C488.6,117.9,488.6,116.3,488.6,114.8z M175.6,172.2c0-1.5,0-3.1,0-4.6
	c0-0.6-0.2-0.8-1.1-0.8c-2.2,0-4.5,0-6.7,0c-0.8,0-1,0.2-1,0.7c0,3.2,0,6.4,0,9.6c0,0.5,0.3,0.7,1,0.7c2.3,0,4.6,0,6.9,0
	c0.8,0,1-0.2,1-0.7C175.6,175.4,175.6,173.8,175.6,172.2z M1085.9,32.5c0-1.5,0-3.1,0-4.6c0-0.6-0.1-0.9-1.1-0.9
	c-2.2,0.1-4.5,0-6.7,0c-0.8,0-1,0.1-1,0.7c0,3.2,0,6.4,0,9.6c0,0.6,0.2,0.7,1,0.7c2.2,0,4.5,0,6.7,0c0.9,0,1.2-0.2,1.1-0.8
	C1085.9,35.7,1085.9,34.1,1085.9,32.5z M1177.3,120.3c0,1.6,0,3.2,0,4.7c0,0.6,0.1,0.8,1.1,0.8c2.2-0.1,4.5-0.1,6.7,0
	c1,0,1.1-0.3,1.1-0.8c0-3.1,0-6.2,0-9.3c0-0.6-0.1-0.8-1.1-0.8c-2.2,0-4.5,0.1-6.7,0c-1,0-1.1,0.3-1.1,0.8
	C1177.3,117.3,1177.3,118.8,1177.3,120.3z M1193.4,120.4c0,1.6,0,3.2,0,4.7c0,0.5,0.1,0.8,1,0.8c2.3,0,4.6-0.1,6.9,0
	c1,0,1-0.3,1-0.8c0-3.1,0-6.2,0-9.3c0-0.6-0.1-0.8-1.1-0.8c-2.2,0.1-4.5,0.1-6.7,0c-1,0-1.2,0.3-1.1,0.9
	C1193.4,117.3,1193.4,118.9,1193.4,120.4z M219.8,47.3c0,1.6,0,3.2,0,4.9c0,0.6,0.2,0.7,1,0.7c2.3,0,4.6,0,6.9,0
	c0.8,0,0.9-0.2,0.9-0.7c0-3.2,0-6.4,0-9.6c0-0.6-0.2-0.7-1-0.7c-2.2,0-4.5,0-6.7,0c-0.9,0-1.1,0.2-1.1,0.8
	C219.8,44.2,219.8,45.8,219.8,47.3z M905.3,159.1c0-1.6,0-3.2,0-4.7c0-0.6-0.2-0.8-1.1-0.8c-2.2,0-4.5,0-6.7,0
	c-0.8,0-1.1,0.1-1.1,0.7c0,3.2,0,6.4,0,9.6c0,0.6,0.3,0.7,1.1,0.7c2.1,0,4.3,0,6.4,0c1.1,0,1.5-0.1,1.4-1
	C905.2,162.1,905.3,160.6,905.3,159.1z M1085.9,49.1c0-1.6,0-3.1,0-4.7c0-0.5-0.1-0.8-1-0.8c-2.3,0-4.6,0-6.9,0c-0.8,0-1,0.2-1,0.7
	c0,3.2,0,6.4,0,9.6c0,0.6,0.3,0.7,1.1,0.7c2.2,0,4.5,0,6.7,0c0.9,0,1.1-0.2,1.1-0.8C1085.9,52.2,1085.9,50.6,1085.9,49.1z
	 M950.7,142.5c0,1.5,0,3.1,0,4.6c0,0.6,0.1,0.9,1.2,0.9c2.2-0.1,4.5,0,6.7,0c0.8,0,1-0.2,1-0.7c0-3.2,0-6.4,0-9.6
	c0-0.6-0.3-0.7-1.1-0.7c-2.2,0-4.5,0-6.7,0c-0.9,0-1.2,0.1-1.1,0.8C950.7,139.3,950.7,140.9,950.7,142.5z M622.6,92.7
	c0,1.6,0,3.2,0,4.7c0,0.6,0.3,0.8,1.1,0.8c2.2,0,4.5,0,6.7,0c0.8,0,1-0.2,1-0.7c0-3.2,0-6.3,0-9.5c0-0.6-0.3-0.8-1.1-0.8
	c-2.2,0-4.5,0-6.7,0c-0.8,0-1,0.2-1,0.7C622.6,89.5,622.6,91.1,622.6,92.7z M610.5,121.3c0-1.6,0-3.2,0-4.7c0-0.6-0.2-0.7-1-0.7
	c-2.3,0-4.6,0-6.9,0c-0.9,0-1,0.2-1,0.8c0,3.1,0,6.3,0,9.4c0,0.6,0.2,0.8,1.1,0.8c2.2,0,4.4-0.1,6.6,0c1.1,0,1.3-0.3,1.3-0.9
	C610.5,124.4,610.5,122.9,610.5,121.3z M159.5,122.7c0-1.6,0-3.2,0-4.8c0-0.5-0.2-0.8-1-0.7c-2.3,0-4.6,0-6.9,0c-0.8,0-1,0.2-1,0.7
	c0,3.2,0,6.3,0,9.5c0,0.6,0.1,0.8,1.1,0.8c2.2,0,4.5,0,6.7,0c0.9,0,1.1-0.2,1.1-0.8C159.4,125.7,159.5,124.2,159.5,122.7z
	 M1193.4,136.9c0,1.6,0,3.2,0,4.8c0,0.5,0.1,0.8,1,0.8c2.3,0,4.6-0.1,6.9,0c1,0,1-0.3,1-0.8c0-3.1,0-6.2,0-9.3
	c0-0.7-0.3-0.8-1.2-0.8c-2.1,0-4.3,0.1-6.4,0c-1,0-1.4,0.1-1.3,0.9C1193.5,133.9,1193.4,135.4,1193.4,136.9z M1186.2,137.1
	c0-1.6,0-3.2,0-4.9c0-0.6-0.3-0.8-1.1-0.8c-2.2,0-4.4,0-6.6,0c-0.8,0-1.2,0.1-1.2,0.7c0.1,3.2,0,6.4,0,9.6c0,0.5,0.2,0.7,1,0.7
	c2.3,0,4.6,0,6.9,0c0.8,0,1-0.2,1-0.7C1186.1,140.2,1186.2,138.7,1186.2,137.1z M228.6,64c0-1.6,0-3.2,0-4.7c0-0.6-0.2-0.8-1.1-0.8
	c-2.2,0-4.5,0-6.7,0c-0.8,0-1,0.2-1,0.7c0,3.2,0,6.4,0,9.6c0,0.5,0.2,0.7,0.9,0.7c2.3,0,4.6,0,6.9,0c0.8,0,1.1-0.2,1-0.7
	C228.6,67.2,228.6,65.6,228.6,64z M863.8,90.5c0-1.6,0-3.2,0-4.7c0-0.6-0.2-0.8-1.1-0.8c-2.2,0-4.5,0-6.7,0c-1,0-1.1,0.3-1.1,0.8
	c0,3.2,0,6.3,0,9.5c0,0.5,0.2,0.8,1,0.7c2.3,0,4.6,0,6.9,0c0.9,0,1-0.2,1-0.7C863.7,93.7,863.8,92.1,863.8,90.5z M1127.4,80.1
	c0-1.5,0-3,0-4.5c0-0.7-0.1-1.1-1.3-1c-2.1,0.1-4.3,0.1-6.4,0c-1,0-1.2,0.2-1.2,0.9c0,3.1,0,6.2,0,9.3c0,0.6,0.1,0.8,1.1,0.8
	c2.2-0.1,4.5,0,6.7,0c0.9,0,1.1-0.2,1.1-0.8C1127.4,83.2,1127.4,81.6,1127.4,80.1z"/>
</svg>
