<?xml version="1.0" encoding="utf-8"?>
<!-- Generator: Adobe Illustrator 19.0.0, SVG Export Plug-In . SVG Version: 6.00 Build 0)  -->
<svg version="1.1" id="Layer_1" xmlns="http://www.w3.org/2000/svg" xmlns:xlink="http://www.w3.org/1999/xlink" x="0px" y="0px"
	 viewBox="-105 45.1 51.4 72.5" style="enable-background:new -105 45.1 51.4 72.5;" xml:space="preserve">
<style type="text/css">
	.st0{clip-path:url(#SVGID_2_);fill:url(#SVGID_3_);}
	.st1{clip-path:url(#SVGID_5_);fill:url(#SVGID_6_);}
	.st2{fill:#FF5926;}
	.st3{fill:#FFFFFF;}
</style>
<g id="SVGID_29_">
	<g>
		<defs>
			<path id="SVGID_1_" d="M-82.7,65.1l5.9,2.5c0.8,0.4,1.2,1,1,1.6c0.6,0.1,1,0.8,0.9,1.6l-0.8,6.3c-0.1,0.5-0.2,0.8-0.3,0.9
				c0.2-0.1,0.3-0.4,0.4-0.9l1.1-6.5c0.2-0.9-0.2-1.5-0.9-1.7c0.2-0.6-0.1-1.3-1-1.6L-82.7,65.1c-0.4-0.2-0.7-0.3-0.9-0.2
				C-83.5,64.8-83.2,64.9-82.7,65.1"/>
		</defs>
		<clipPath id="SVGID_2_">
			<use xlink:href="#SVGID_1_"  style="overflow:visible;"/>
		</clipPath>
		
			<linearGradient id="SVGID_3_" gradientUnits="userSpaceOnUse" x1="-768.7736" y1="-680.4705" x2="-768.3526" y2="-680.4705" gradientTransform="matrix(-27.6605 15.9703 -15.9703 -27.6605 -32204.6875 -6476.8862)">
			<stop  offset="0" style="stop-color:#FFFFFF"/>
			<stop  offset="1" style="stop-color:#000000"/>
		</linearGradient>
		<polygon class="st0" points="-68.7,74.7 -81.3,82 -89.4,68.1 -76.7,60.8 		"/>
	</g>
</g>
<g>
	<defs>
		<path id="SVGID_4_" d="M-82.7,65.1l5.9,2.5c0.8,0.4,1.2,1,1,1.6c0.6,0.1,1,0.8,0.9,1.6l-0.8,6.3c-0.1,0.5-0.2,0.8-0.3,0.9
			c0.2-0.1,0.3-0.4,0.4-0.9l1.1-6.5c0.2-0.9-0.2-1.5-0.9-1.7c0.2-0.6-0.1-1.3-1-1.6L-82.7,65.1c-0.4-0.2-0.7-0.3-0.9-0.2
			C-83.5,64.8-83.2,64.9-82.7,65.1"/>
	</defs>
	<clipPath id="SVGID_5_">
		<use xlink:href="#SVGID_4_"  style="overflow:visible;"/>
	</clipPath>
	
		<linearGradient id="SVGID_6_" gradientUnits="userSpaceOnUse" x1="-768.7736" y1="-680.4705" x2="-768.3526" y2="-680.4705" gradientTransform="matrix(-27.6605 15.9703 -15.9703 -27.6605 -32204.6875 -6476.8862)">
		<stop  offset="0" style="stop-color:#FBF2CE"/>
		<stop  offset="0.1644" style="stop-color:#FAEEB9"/>
		<stop  offset="0.5034" style="stop-color:#F8E384"/>
		<stop  offset="0.984" style="stop-color:#F5D32F"/>
		<stop  offset="1" style="stop-color:#F5D22C"/>
	</linearGradient>
	<polygon class="st1" points="-68.7,74.7 -81.3,82 -89.4,68.1 -76.7,60.8 	"/>
</g>
<g id="XMLID_1_">
	<path id="XMLID_55_" class="st2" d="M-53.6,70.8c0,21.7-25.7,46.8-25.7,46.8S-105,89.9-105,70.8c0-14.2,11.5-25.7,25.7-25.7
		S-53.6,56.6-53.6,70.8z"/>
</g>
<circle id="XMLID_36_" class="st3" cx="-79.3" cy="71" r="18.8"/>
<g>
	<path d="M-79.5,78.6l-1.7,0.4h0v3h-4.3v-3h-6c-1.2,0-2-1.1-1.6-2.2l3.6-9.7h4.3l-3,8.4c-0.1,0.3,0,0.5,0.4,0.5h2.3v-3.7l0.8-2.3
		h3.5v6h1.7V78.6z"/>
	<path d="M-75.5,74.3c-1.7-0.2-2.3-1.9-2.3-3.4c0-2.8,1-4,5.8-4c4.8,0,5.8,1.2,5.8,4c0,1.5-0.7,3.3-2.3,3.4v0.1
		c2.2,0.2,2.7,2.1,2.7,4c0,3-1.2,4-6.2,4.1c-4.9,0-6.2-1.1-6.2-4.1C-78.3,76.4-77.8,74.5-75.5,74.3L-75.5,74.3z M-73.9,77.5
		c0,1.3,0.3,1.6,1.8,1.6c1.4,0,1.7-0.3,1.7-1.6c0-1.4-0.3-1.7-1.7-1.7C-73.6,75.7-73.9,76.1-73.9,77.5z M-73.7,71.5
		c0,1.2,0.3,1.4,1.6,1.4c1.2,0,1.5-0.2,1.5-1.4c0-1.4-0.3-1.6-1.5-1.6C-73.4,69.8-73.7,70.1-73.7,71.5z"/>
</g>
<g>
	<path d="M-87.9,65.1h-0.8l-0.1-0.8h-2.2l-0.1,0.8H-92v-1.6h0.4c0.2-0.7,0.4-1.4,0.5-2.1c0-0.5,0.4-0.8,0.9-0.8h1.8v2.9h0.5V65.1z
		 M-89.6,61.3h-0.2c-0.2,0-0.2,0.1-0.2,0.3c-0.1,1-0.2,1.5-0.4,1.9h0.9V61.3z"/>
	<path d="M-84.3,62.4c0,1.5-0.5,1.9-1.7,1.9c-1.3,0-1.7-0.4-1.7-1.9s0.5-1.9,1.7-1.9C-84.7,60.5-84.3,60.9-84.3,62.4z M-86.5,62.4
		c0,0.9,0.1,1.1,0.5,1.1s0.5-0.2,0.5-1.1s-0.1-1.1-0.5-1.1S-86.5,61.5-86.5,62.4z"/>
	<path d="M-80.6,64.3h-1.2v-2.9H-82c-0.2,0-0.3,0.1-0.3,0.2c0,0.6-0.1,1.4-0.3,1.8c-0.3,0.9-0.8,1-1.5,0.9l-0.1-0.9
		c0.3,0,0.4-0.1,0.5-0.3c0.1-0.3,0.2-0.9,0.2-1.6c0-0.6,0.4-0.9,1-0.9h1.8V64.3z"/>
	<path d="M-77.3,64.2c-0.5,0.1-1.3,0.1-1.9,0.1c-0.5,0-0.9-0.3-0.9-0.8v-2.1c0-0.5,0.4-0.8,0.9-0.8c0.6,0,1.4,0,1.9,0.1l-0.1,0.8
		h-1.4c-0.1,0-0.2,0.1-0.2,0.2V62h1.4v0.8h-1.4v0.4c0,0.1,0.1,0.2,0.2,0.2h1.4L-77.3,64.2z"/>
	<path d="M-74.5,62.4c0.6,0,0.8,0.4,0.8,1c0,0.8-0.4,1-1.3,1c-0.8,0-1.3,0-1.8,0v-3.7c0.5,0,0.9,0,1.6,0c1,0,1.4,0.2,1.4,1
		C-73.8,62-74,62.3-74.5,62.4L-74.5,62.4z M-75.3,62c0.3,0,0.3-0.1,0.3-0.4c0-0.3-0.1-0.3-0.3-0.3h-0.4V62H-75.3z M-75.2,63.5
		c0.3,0,0.4-0.1,0.4-0.4c0-0.3-0.1-0.4-0.4-0.4h-0.4v0.8H-75.2z"/>
	<path d="M-69.9,62.4c0,1.5-0.5,1.9-1.7,1.9c-1.3,0-1.7-0.4-1.7-1.9s0.5-1.9,1.7-1.9C-70.4,60.5-69.9,60.9-69.9,62.4z M-72.1,62.4
		c0,0.9,0.1,1.1,0.5,1.1c0.4,0,0.5-0.2,0.5-1.1s-0.1-1.1-0.5-1.1C-72,61.3-72.1,61.5-72.1,62.4z"/>
	<path d="M-66.7,64.2c-0.5,0.1-1.3,0.1-1.9,0.1c-0.5,0-0.9-0.3-0.9-0.8v-2.1c0-0.5,0.4-0.8,0.9-0.8c0.6,0,1.4,0,1.9,0.1l-0.1,0.8
		h-1.4c-0.1,0-0.2,0.1-0.2,0.2V62h1.4v0.8h-1.4v0.4c0,0.1,0.1,0.2,0.2,0.2h1.4L-66.7,64.2z"/>
</g>
</svg>
